<?xml version="1.0" standalone="no"?>
<!DOCTYPE svg PUBLIC "-//W3C//DTD SVG 20010904//EN"
 "http://www.w3.org/TR/2001/REC-SVG-20010904/DTD/svg10.dtd">
<svg version="1.0" xmlns="http://www.w3.org/2000/svg"
 width="400.000000pt" height="400.000000pt" viewBox="0 0 400.000000 400.000000"
 preserveAspectRatio="xMidYMid meet">
<metadata>
Created by potrace 1.11, written by Peter Selinger 2001-2013
</metadata>
<g transform="translate(0.000000,400.000000) scale(0.100000,-0.100000)"
fill="#000000" stroke="none">
<path d="M0 2000 l0 -2000 2000 0 2000 0 0 2000 0 2000 -2000 0 -2000 0 0
-2000z m1258 468 c31 -31 8 -58 -48 -58 -19 0 -33 -7 -40 -19 -5 -11 -10 -81
-10 -157 l0 -137 -40 -39 c-23 -21 -35 -38 -26 -38 8 0 26 -14 40 -31 25 -30
26 -35 26 -165 0 -75 5 -144 10 -155 7 -13 21 -19 43 -19 41 0 60 -13 55 -36
-2 -15 -14 -20 -50 -22 -56 -4 -105 18 -118 54 -6 14 -10 87 -10 163 0 156 -2
159 -77 182 -37 10 -43 16 -43 40 0 27 15 39 49 39 10 0 30 9 45 21 26 20 26
21 26 160 0 106 4 147 15 169 9 17 17 30 18 30 1 0 20 7 42 15 50 18 77 19 93
3z m1668 -58 c51 -18 58 -41 64 -208 6 -168 4 -163 73 -183 64 -17 62 -65 -4
-82 -65 -17 -69 -26 -69 -166 0 -186 -15 -220 -102 -236 -51 -10 -78 1 -78 30
0 25 11 31 70 37 l25 3 5 145 c5 153 11 174 56 209 l27 21 -28 22 c-45 35 -55
74 -55 211 0 136 -4 147 -57 147 -35 0 -50 17 -39 45 6 18 68 20 112 5z
m-1004 -103 c65 -29 81 -58 50 -89 -19 -20 -20 -20 -73 4 -77 33 -159 32 -220
-4 -134 -79 -131 -287 6 -365 53 -30 130 -30 212 -1 51 19 64 20 77 9 61 -51
-48 -116 -194 -116 -100 0 -155 21 -215 80 -57 57 -78 115 -79 210 -1 147 70
246 207 291 62 20 162 12 229 -19z m543 10 c36 -13 40 -17 40 -48 0 -39 -1
-39 -140 -24 -81 9 -133 -7 -160 -49 -14 -22 -15 -29 -3 -53 14 -29 13 -29
178 -77 128 -38 173 -97 149 -197 -25 -110 -157 -156 -323 -113 -78 20 -106
38 -106 69 0 39 26 45 89 23 42 -14 76 -18 134 -16 69 3 81 6 98 27 10 13 19
36 19 53 0 25 -6 32 -42 48 -24 10 -80 28 -126 40 -49 13 -96 33 -113 47 -104
88 -63 238 79 284 37 12 178 3 227 -14z"/>
</g>
</svg>
